<svg version="1.1" id="Layer_1" xmlns="http://www.w3.org/2000/svg" xmlns:xlink="http://www.w3.org/1999/xlink" x="0px" y="0px"
	 width="100%" viewBox="0 0 1920 1080" enable-background="new 0 0 1920 1080" xml:space="preserve">
<path fill="#074390" opacity="1.000000" stroke="none" 
	d="
M1.000000,441.000000 
	C1.000000,294.380676 1.000000,147.761337 1.000000,1.000000 
	C287.360168,1.000000 573.720398,1.000000 860.540283,1.468657 
	C860.999939,148.199448 860.999939,294.461578 860.999939,441.000000 
	C573.939453,441.000000 287.469727,441.000000 1.000000,441.000000 
M504.256287,289.757172 
	C509.062897,284.442719 514.047119,279.275116 518.609253,273.758484 
	C521.332336,270.465759 524.614868,268.941101 528.637878,267.977661 
	C595.592346,251.943390 662.524353,235.815704 729.456970,219.690247 
	C731.047485,219.307053 732.586304,218.709473 735.158508,217.890549 
	C733.435242,217.327835 732.974121,217.141632 732.495911,217.026199 
	C663.792664,200.440155 595.082764,183.881485 526.406433,167.184677 
	C524.026062,166.605972 521.505920,165.082840 519.851257,163.269577 
	C499.070648,140.497406 478.440521,117.587982 457.765961,94.719017 
	C446.157684,81.878639 434.538513,69.048134 422.489594,55.732838 
	C421.655640,56.851254 421.131256,57.687828 420.479553,58.409378 
	C389.092346,93.160049 357.732544,127.935776 326.209259,162.562698 
	C324.141113,164.834473 321.011383,166.772903 318.041565,167.496964 
	C262.139313,181.126099 206.185822,194.545059 150.245010,208.016083 
	C137.268845,211.140869 124.299950,214.295776 111.327713,217.436813 
	C113.481964,218.987762 115.651054,219.546082 117.828293,220.070557 
	C184.599518,236.154892 251.377045,252.213196 318.122498,268.403656 
	C320.689209,269.026276 323.529510,270.387482 325.264801,272.294159 
	C356.670776,306.802368 387.925385,341.448273 419.218079,376.059570 
	C420.297150,377.253082 421.435669,378.392792 422.820007,379.844391 
	C449.953705,349.838806 476.874908,320.068237 504.256287,289.757172 
z"/>
<path fill="#074390" opacity="1.000000" stroke="none" 
	d="
M1061.000000,1.000000 
	C1347.574219,1.000000 1634.148315,1.000000 1921.000000,1.000000 
	C1921.000000,147.360077 1921.000000,293.720337 1920.531372,440.540283 
	C1633.802490,440.999939 1347.542236,440.999939 1061.000000,440.999939 
	C1061.000000,293.942444 1061.000000,147.471222 1061.000000,1.000000 
M1434.364502,308.143097 
	C1455.912354,331.984314 1477.460205,355.825531 1499.657593,380.385498 
	C1500.446777,379.156311 1500.874390,378.234985 1501.524658,377.514801 
	C1532.905029,342.758545 1564.266235,307.984863 1595.789551,273.358612 
	C1597.859497,271.084991 1600.985596,269.135132 1603.955566,268.412750 
	C1664.065430,253.792313 1724.225830,239.378799 1784.372437,224.909225 
	C1793.156006,222.796158 1801.921631,220.609055 1810.695557,218.456223 
	C1809.940796,217.325104 1809.238525,217.102539 1808.524170,216.930054 
	C1739.985229,200.376938 1671.440674,183.846069 1602.925171,167.196182 
	C1600.681396,166.650925 1598.257935,165.328705 1596.716553,163.639984 
	C1577.281616,142.347366 1557.998169,120.916573 1538.666748,99.529457 
	C1525.629761,85.106247 1512.578125,70.696442 1499.306152,56.029758 
	C1497.492676,57.989677 1495.902100,59.673908 1494.349121,61.392185 
	C1463.845581,95.143562 1433.386475,128.935410 1402.757690,162.572739 
	C1400.687500,164.846191 1397.544556,166.773071 1394.568481,167.498322 
	C1335.919067,181.790970 1277.219971,195.879211 1218.532593,210.016068 
	C1208.337646,212.471863 1198.150513,214.959366 1187.959717,217.432205 
	C1190.037842,218.968994 1192.054443,219.523743 1194.086670,220.013351 
	C1261.019165,236.138962 1327.961426,252.225281 1394.859253,268.493469 
	C1397.682495,269.180023 1400.610352,271.068298 1402.615479,273.213593 
	C1413.196411,284.534546 1423.496460,296.117828 1434.364502,308.143097 
z"/>
<path fill="#074390" opacity="1.000000" stroke="none" 
	d="
M861.000000,1081.000000 
	C574.425842,1081.000000 287.851715,1081.000000 1.000000,1081.000000 
	C1.000000,934.639954 1.000000,788.279663 1.468657,641.459717 
	C288.197662,641.000000 574.458008,641.000000 861.000000,641.000000 
	C861.000000,788.057495 861.000000,934.528748 861.000000,1081.000000 
M379.427826,749.922058 
	C361.549988,769.703674 343.721802,789.530762 325.715851,809.195007 
	C323.957520,811.115356 321.266693,812.702515 318.734863,813.317993 
	C252.969345,829.304077 187.166916,845.138367 121.373550,861.010071 
	C117.987465,861.827026 114.625214,862.742737 111.251854,863.612427 
	C112.023460,864.652588 112.626053,864.861511 113.243164,865.010254 
	C180.979187,881.344360 248.708206,897.707825 316.472137,913.925415 
	C320.879791,914.980286 324.305328,916.733826 327.264740,920.260071 
	C333.045563,927.148132 339.263336,933.669495 345.298157,940.344421 
	C370.999054,968.772034 396.699280,997.200317 422.652679,1025.908081 
	C424.232208,1024.231079 425.725555,1022.701172 427.158112,1021.116333 
	C457.888275,987.121704 488.575836,953.088318 519.420471,919.197876 
	C521.385986,917.038269 524.373718,915.209595 527.200928,914.521606 
	C591.347290,898.912537 655.538147,883.485840 719.719238,868.019531 
	C724.586731,866.846497 729.444580,865.633728 735.745544,864.086060 
	C733.607605,863.399109 733.028625,863.170837 732.429321,863.026550 
	C664.365356,846.636841 596.288696,830.299377 528.267517,813.734070 
	C524.842041,812.899841 521.212402,810.723022 518.830872,808.117371 
	C491.849823,778.597168 465.095581,748.869690 438.276459,719.201416 
	C433.151001,713.531494 428.007416,707.877930 422.702362,702.029541 
	C408.250397,718.023743 394.076294,733.710449 379.427826,749.922058 
z"/>
<path fill="#074390" opacity="1.000000" stroke="none" 
	d="
M1921.000000,641.000000 
	C1921.000000,787.619324 1921.000000,934.238708 1921.000000,1081.000000 
	C1634.639771,1081.000000 1348.279663,1081.000000 1061.459717,1080.531372 
	C1061.000122,933.800659 1061.000122,787.538513 1061.000122,641.000000 
	C1348.060669,641.000000 1634.530273,641.000000 1921.000000,641.000000 
M1187.850464,864.322205 
	C1188.298096,864.521484 1188.727417,864.796692 1189.195923,864.909424 
	C1257.424438,881.332031 1325.667358,897.695740 1393.853394,914.292542 
	C1397.272217,915.124695 1400.872070,917.358276 1403.255859,919.971619 
	C1433.352295,952.966492 1463.238403,986.153198 1493.187256,1019.282776 
	C1495.172241,1021.478516 1497.230469,1023.608032 1499.430908,1025.956665 
	C1500.105591,1025.161377 1500.523682,1024.640869 1500.970459,1024.146240 
	C1532.588135,989.155579 1564.173706,954.135437 1595.910767,919.253235 
	C1597.874878,917.094360 1600.842896,915.243958 1603.662231,914.557251 
	C1665.060059,899.602112 1726.503540,884.834412 1787.937012,870.025452 
	C1795.538940,868.192932 1803.133911,866.331482 1810.732178,864.483459 
	C1810.016479,863.378052 1809.437866,863.149414 1808.838867,863.004883 
	C1740.135864,846.421265 1671.426514,829.863281 1602.747559,813.180603 
	C1600.514038,812.638062 1598.129150,811.244873 1596.587036,809.546875 
	C1564.880005,774.637268 1533.281616,739.628784 1501.691772,704.612854 
	C1500.960938,703.802734 1500.579102,702.677795 1499.859497,701.385437 
	C1496.900513,704.640625 1494.887939,706.843933 1492.886963,709.057678 
	C1462.828247,742.312744 1432.807373,775.602234 1402.630615,808.749756 
	C1400.662354,810.911743 1397.690796,812.748291 1394.866089,813.450989 
	C1368.077637,820.115173 1341.215210,826.481140 1314.383301,832.971252 
	C1272.207520,843.172607 1230.038940,853.403625 1187.850464,864.322205 
z"/>
<path fill="#FFFFFF" opacity="1.000000" stroke="none" 
	d="
M1921.000000,640.531372 
	C1634.530273,641.000000 1348.060669,641.000000 1061.000122,641.000000 
	C1061.000122,787.538513 1061.000122,933.800659 1061.000000,1080.531372 
	C1044.645752,1081.000000 1028.291504,1081.000000 1011.468628,1080.531372 
	C1011.000000,942.735107 1011.000000,805.407471 1011.000000,667.577454 
	C977.272034,686.717468 944.387695,686.640686 911.000000,667.585327 
	C911.000000,805.833130 911.000000,943.416565 911.000000,1081.000000 
	C894.645752,1081.000000 878.291565,1081.000000 861.468628,1081.000000 
	C861.000000,934.528748 861.000000,788.057495 861.000000,641.000000 
	C574.458008,641.000000 288.197662,641.000000 1.468657,641.000000 
	C1.000000,624.645752 1.000000,608.291565 1.468657,591.468384 
	C266.216370,590.999512 530.495422,590.999512 795.292419,590.999512 
	C770.483459,556.546387 771.996643,523.595459 798.028687,491.000000 
	C531.828796,491.000000 266.414398,491.000000 1.000000,491.000000 
	C1.000000,474.645782 1.000000,458.291534 1.000000,441.468658 
	C287.469727,441.000000 573.939453,441.000000 860.999939,441.000000 
	C860.999939,294.461578 860.999939,148.199448 861.000000,1.468657 
	C877.354248,1.000000 893.708435,1.000000 910.531555,1.468657 
	C911.000427,140.252838 911.000427,278.568359 911.000427,417.559509 
	C944.658997,398.217224 977.679321,398.392548 1011.000000,417.496063 
	C1011.000000,278.140869 1011.000000,139.570435 1011.000000,1.000000 
	C1027.354248,1.000000 1043.708496,1.000000 1060.531372,1.000000 
	C1061.000000,147.471222 1061.000000,293.942444 1061.000000,440.999939 
	C1347.542236,440.999939 1633.802490,440.999939 1920.531372,440.999969 
	C1921.000000,457.354218 1921.000000,473.708466 1920.531372,490.531555 
	C1656.377930,491.000397 1392.692993,491.000397 1128.263550,491.000397 
	C1154.587158,523.866516 1156.004883,556.951782 1131.054565,591.000000 
	C1394.866455,591.000000 1657.933228,591.000000 1921.000000,591.000000 
	C1921.000000,607.354248 1921.000000,623.708435 1921.000000,640.531372 
M1014.994019,515.537048 
	C1013.641541,508.690918 1012.698303,501.732544 1010.856750,495.020599 
	C1006.098877,477.679474 999.340576,461.310272 985.538574,448.909912 
	C972.003174,436.749146 955.089783,436.690063 941.321777,448.682495 
	C931.798035,456.978058 925.592651,467.566162 921.087769,479.140747 
	C908.660339,511.071503 907.101624,543.951782 913.540161,577.310730 
	C917.169556,596.115601 923.595642,613.853333 936.487732,628.581970 
	C952.240112,646.578308 973.751099,646.952942 989.554321,629.044617 
	C994.444519,623.502930 998.711426,617.118103 1001.976135,610.485535 
	C1016.664612,580.644348 1018.557373,548.877014 1014.994019,515.537048 
M1086.223511,461.281647 
	C1064.891113,438.411316 1031.910522,428.975922 1006.717346,438.435699 
	C1050.391602,458.552643 1069.770142,494.176941 1069.809326,540.843750 
	C1069.848511,587.538940 1050.446899,623.236389 1006.532227,643.581055 
	C1037.170532,652.891602 1070.873291,641.268127 1091.608398,614.486816 
	C1109.118408,591.870911 1116.752808,566.197815 1116.060791,537.713074 
	C1115.358765,508.815002 1106.180664,483.355469 1086.223511,461.281647 
M806.625732,555.858398 
	C808.431396,564.125671 809.459534,572.659302 812.183655,580.611938 
	C821.643250,608.227722 838.356445,629.755005 865.940979,641.489319 
	C881.356628,648.046997 902.491516,648.766663 914.982422,643.422913 
	C871.484009,623.143860 852.120178,587.507385 852.187012,540.799072 
	C852.253723,494.125305 871.758911,458.559570 915.664551,438.231079 
	C888.451294,430.812805 864.051514,436.293579 843.207947,454.497559 
	C812.779785,481.072449 803.362793,515.858337 806.625732,555.858398 
z"/>
<path fill="#CC2E39" opacity="1.000000" stroke="none" 
	d="
M1.000000,491.468658 
	C266.414398,491.000000 531.828796,491.000000 798.028687,491.000000 
	C771.996643,523.595459 770.483459,556.546387 795.292419,590.999512 
	C530.495422,590.999512 266.216370,590.999512 1.468657,590.999756 
	C1.000000,557.979126 1.000000,524.958191 1.000000,491.468658 
z"/>
<path fill="#CC2E39" opacity="1.000000" stroke="none" 
	d="
M1921.000000,590.531372 
	C1657.933228,591.000000 1394.866455,591.000000 1131.054565,591.000000 
	C1156.004883,556.951782 1154.587158,523.866516 1128.263550,491.000397 
	C1392.692993,491.000397 1656.377930,491.000397 1920.531372,491.000183 
	C1921.000000,524.020874 1921.000000,557.041809 1921.000000,590.531372 
z"/>
<path fill="#CC2E39" opacity="1.000000" stroke="none" 
	d="
M1010.531372,1.000000 
	C1011.000000,139.570435 1011.000000,278.140869 1011.000000,417.496063 
	C977.679321,398.392548 944.658997,398.217224 911.000427,417.559509 
	C911.000427,278.568359 911.000427,140.252838 911.000244,1.468657 
	C944.020874,1.000000 977.041809,1.000000 1010.531372,1.000000 
z"/>
<path fill="#CC2E39" opacity="1.000000" stroke="none" 
	d="
M911.468628,1081.000000 
	C911.000000,943.416565 911.000000,805.833130 911.000000,667.585327 
	C944.387695,686.640686 977.272034,686.717468 1011.000000,667.577454 
	C1011.000000,805.407471 1011.000000,942.735107 1011.000000,1080.531372 
	C977.979126,1081.000000 944.958191,1081.000000 911.468628,1081.000000 
z"/>
<path fill="#FEFEFF" opacity="1.000000" stroke="none" 
	d="
M504.026184,290.027405 
	C476.874908,320.068237 449.953705,349.838806 422.820007,379.844391 
	C421.435669,378.392792 420.297150,377.253082 419.218079,376.059570 
	C387.925385,341.448273 356.670776,306.802368 325.264801,272.294159 
	C323.529510,270.387482 320.689209,269.026276 318.122498,268.403656 
	C251.377045,252.213196 184.599518,236.154892 117.828293,220.070557 
	C115.651054,219.546082 113.481964,218.987762 111.327713,217.436813 
	C124.299950,214.295776 137.268845,211.140869 150.245010,208.016083 
	C206.185822,194.545059 262.139313,181.126099 318.041565,167.496964 
	C321.011383,166.772903 324.141113,164.834473 326.209259,162.562698 
	C357.732544,127.935776 389.092346,93.160049 420.479553,58.409378 
	C421.131256,57.687828 421.655640,56.851254 422.489594,55.732838 
	C434.538513,69.048134 446.157684,81.878639 457.765961,94.719017 
	C478.440521,117.587982 499.070648,140.497406 519.851257,163.269577 
	C521.505920,165.082840 524.026062,166.605972 526.406433,167.184677 
	C595.082764,183.881485 663.792664,200.440155 732.495911,217.026199 
	C732.974121,217.141632 733.435242,217.327835 735.158508,217.890549 
	C732.586304,218.709473 731.047485,219.307053 729.456970,219.690247 
	C662.524353,235.815704 595.592346,251.943390 528.637878,267.977661 
	C524.614868,268.941101 521.332336,270.465759 518.609253,273.758484 
	C514.047119,279.275116 509.062897,284.442719 504.026184,290.027405 
z"/>
<path fill="#FEFEFF" opacity="1.000000" stroke="none" 
	d="
M1434.129272,307.876587 
	C1423.496460,296.117828 1413.196411,284.534546 1402.615479,273.213593 
	C1400.610352,271.068298 1397.682495,269.180023 1394.859253,268.493469 
	C1327.961426,252.225281 1261.019165,236.138962 1194.086670,220.013351 
	C1192.054443,219.523743 1190.037842,218.968994 1187.959717,217.432205 
	C1198.150513,214.959366 1208.337646,212.471863 1218.532593,210.016068 
	C1277.219971,195.879211 1335.919067,181.790970 1394.568481,167.498322 
	C1397.544556,166.773071 1400.687500,164.846191 1402.757690,162.572739 
	C1433.386475,128.935410 1463.845581,95.143562 1494.349121,61.392185 
	C1495.902100,59.673908 1497.492676,57.989677 1499.306152,56.029758 
	C1512.578125,70.696442 1525.629761,85.106247 1538.666748,99.529457 
	C1557.998169,120.916573 1577.281616,142.347366 1596.716553,163.639984 
	C1598.257935,165.328705 1600.681396,166.650925 1602.925171,167.196182 
	C1671.440674,183.846069 1739.985229,200.376938 1808.524170,216.930054 
	C1809.238525,217.102539 1809.940796,217.325104 1810.695557,218.456223 
	C1801.921631,220.609055 1793.156006,222.796158 1784.372437,224.909225 
	C1724.225830,239.378799 1664.065430,253.792313 1603.955566,268.412750 
	C1600.985596,269.135132 1597.859497,271.084991 1595.789551,273.358612 
	C1564.266235,307.984863 1532.905029,342.758545 1501.524658,377.514801 
	C1500.874390,378.234985 1500.446777,379.156311 1499.657593,380.385498 
	C1477.460205,355.825531 1455.912354,331.984314 1434.129272,307.876587 
z"/>
<path fill="#FEFEFF" opacity="1.000000" stroke="none" 
	d="
M379.665009,749.659607 
	C394.076294,733.710449 408.250397,718.023743 422.702362,702.029541 
	C428.007416,707.877930 433.151001,713.531494 438.276459,719.201416 
	C465.095581,748.869690 491.849823,778.597168 518.830872,808.117371 
	C521.212402,810.723022 524.842041,812.899841 528.267517,813.734070 
	C596.288696,830.299377 664.365356,846.636841 732.429321,863.026550 
	C733.028625,863.170837 733.607605,863.399109 735.745544,864.086060 
	C729.444580,865.633728 724.586731,866.846497 719.719238,868.019531 
	C655.538147,883.485840 591.347290,898.912537 527.200928,914.521606 
	C524.373718,915.209595 521.385986,917.038269 519.420471,919.197876 
	C488.575836,953.088318 457.888275,987.121704 427.158112,1021.116333 
	C425.725555,1022.701172 424.232208,1024.231079 422.652679,1025.908081 
	C396.699280,997.200317 370.999054,968.772034 345.298157,940.344421 
	C339.263336,933.669495 333.045563,927.148132 327.264740,920.260071 
	C324.305328,916.733826 320.879791,914.980286 316.472137,913.925415 
	C248.708206,897.707825 180.979187,881.344360 113.243164,865.010254 
	C112.626053,864.861511 112.023460,864.652588 111.251854,863.612427 
	C114.625214,862.742737 117.987465,861.827026 121.373550,861.010071 
	C187.166916,845.138367 252.969345,829.304077 318.734863,813.317993 
	C321.266693,812.702515 323.957520,811.115356 325.715851,809.195007 
	C343.721802,789.530762 361.549988,769.703674 379.665009,749.659607 
z"/>
<path fill="#FEFEFF" opacity="1.000000" stroke="none" 
	d="
M1187.858887,863.972107 
	C1230.038940,853.403625 1272.207520,843.172607 1314.383301,832.971252 
	C1341.215210,826.481140 1368.077637,820.115173 1394.866089,813.450989 
	C1397.690796,812.748291 1400.662354,810.911743 1402.630615,808.749756 
	C1432.807373,775.602234 1462.828247,742.312744 1492.886963,709.057678 
	C1494.887939,706.843933 1496.900513,704.640625 1499.859497,701.385437 
	C1500.579102,702.677795 1500.960938,703.802734 1501.691772,704.612854 
	C1533.281616,739.628784 1564.880005,774.637268 1596.587036,809.546875 
	C1598.129150,811.244873 1600.514038,812.638062 1602.747559,813.180603 
	C1671.426514,829.863281 1740.135864,846.421265 1808.838867,863.004883 
	C1809.437866,863.149414 1810.016479,863.378052 1810.732178,864.483459 
	C1803.133911,866.331482 1795.538940,868.192932 1787.937012,870.025452 
	C1726.503540,884.834412 1665.060059,899.602112 1603.662231,914.557251 
	C1600.842896,915.243958 1597.874878,917.094360 1595.910767,919.253235 
	C1564.173706,954.135437 1532.588135,989.155579 1500.970459,1024.146240 
	C1500.523682,1024.640869 1500.105591,1025.161377 1499.430908,1025.956665 
	C1497.230469,1023.608032 1495.172241,1021.478516 1493.187256,1019.282776 
	C1463.238403,986.153198 1433.352295,952.966492 1403.255859,919.971619 
	C1400.872070,917.358276 1397.272217,915.124695 1393.853394,914.292542 
	C1325.667358,897.695740 1257.424438,881.332031 1189.195923,864.909424 
	C1188.727417,864.796692 1188.298096,864.521484 1187.858887,863.972107 
z"/>
<path fill="#0E0F28" opacity="1.000000" stroke="none" 
	d="
M1015.029663,515.982300 
	C1018.557373,548.877014 1016.664612,580.644348 1001.976135,610.485535 
	C998.711426,617.118103 994.444519,623.502930 989.554321,629.044617 
	C973.751099,646.952942 952.240112,646.578308 936.487732,628.581970 
	C923.595642,613.853333 917.169556,596.115601 913.540161,577.310730 
	C907.101624,543.951782 908.660339,511.071503 921.087769,479.140747 
	C925.592651,467.566162 931.798035,456.978058 941.321777,448.682495 
	C955.089783,436.690063 972.003174,436.749146 985.538574,448.909912 
	C999.340576,461.310272 1006.098877,477.679474 1010.856750,495.020599 
	C1012.698303,501.732544 1013.641541,508.690918 1015.029663,515.982300 
z"/>
<path fill="#0F1029" opacity="1.000000" stroke="none" 
	d="
M1086.465088,461.538605 
	C1106.180664,483.355469 1115.358765,508.815002 1116.060791,537.713074 
	C1116.752808,566.197815 1109.118408,591.870911 1091.608398,614.486816 
	C1070.873291,641.268127 1037.170532,652.891602 1006.532227,643.581055 
	C1050.446899,623.236389 1069.848511,587.538940 1069.809326,540.843750 
	C1069.770142,494.176941 1050.391602,458.552643 1006.717346,438.435699 
	C1031.910522,428.975922 1064.891113,438.411316 1086.465088,461.538605 
z"/>
<path fill="#0F1029" opacity="1.000000" stroke="none" 
	d="
M806.531006,555.410461 
	C803.362793,515.858337 812.779785,481.072449 843.207947,454.497559 
	C864.051514,436.293579 888.451294,430.812805 915.664551,438.231079 
	C871.758911,458.559570 852.253723,494.125305 852.187012,540.799072 
	C852.120178,587.507385 871.484009,623.143860 914.982422,643.422913 
	C902.491516,648.766663 881.356628,648.046997 865.940979,641.489319 
	C838.356445,629.755005 821.643250,608.227722 812.183655,580.611938 
	C809.459534,572.659302 808.431396,564.125671 806.531006,555.410461 
z"/>
</svg>
